<svg width="16" height="16" viewBox="0 0 16 16" fill="none" xmlns="http://www.w3.org/2000/svg">
<path d="M7.99748 0.00476074C5.82548 0.00476074 5.55314 0.0139639 4.70013 0.0528857C3.84889 0.0917139 3.26752 0.226917 2.75883 0.424636C2.23292 0.62898 1.78692 0.902448 1.34228 1.34704C0.897672 1.79168 0.624219 2.23768 0.419875 2.76359C0.222156 3.27229 0.0869531 3.85365 0.048125 4.70489C0.00920312 5.5579 0 5.83025 0 8.00224C0 10.1742 0.00920312 10.4466 0.048125 11.2996C0.0869531 12.1508 0.222156 12.7322 0.419875 13.2409C0.624219 13.7668 0.897687 14.2128 1.34228 14.6574C1.78692 15.102 2.23292 15.3755 2.75883 15.5799C3.26753 15.7775 3.84889 15.9127 4.70013 15.9516C5.55314 15.9905 5.82548 15.9997 7.99748 15.9997C10.1695 15.9997 10.4418 15.9905 11.2948 15.9516C12.146 15.9127 12.7274 15.7775 13.2361 15.5799C13.762 15.3755 14.208 15.102 14.6527 14.6574C15.0973 14.2128 15.3707 13.7668 15.5751 13.2409C15.7728 12.7322 15.908 12.1508 15.9468 11.2996C15.9857 10.4466 15.9949 10.1742 15.9949 8.00224C15.9949 5.83025 15.9857 5.5579 15.9468 4.70489C15.908 3.85365 15.7728 3.27228 15.5751 2.76359C15.3707 2.23768 15.0972 1.79168 14.6527 1.34704C14.208 0.902433 13.762 0.62898 13.2361 0.424636C12.7274 0.226917 12.146 0.0917139 11.2948 0.0528857C10.4418 0.0139639 10.1695 0.00476074 7.99748 0.00476074ZM7.99748 1.44575C10.1329 1.44575 10.3858 1.4539 11.2291 1.49239C12.0089 1.52795 12.4323 1.65823 12.7142 1.76775C13.0875 1.91282 13.3539 2.08612 13.6337 2.366C13.9136 2.64584 14.0869 2.91225 14.232 3.28556C14.3415 3.56737 14.4718 3.99082 14.5073 4.77057C14.5458 5.61387 14.554 5.86682 14.554 8.00226C14.554 10.1377 14.5458 10.3906 14.5073 11.2339C14.4718 12.0137 14.3415 12.4371 14.232 12.7189C14.0869 13.0922 13.9136 13.3587 13.6337 13.6385C13.3539 13.9184 13.0875 14.0917 12.7142 14.2367C12.4323 14.3463 12.0089 14.4766 11.2291 14.5121C10.386 14.5506 10.133 14.5587 7.99748 14.5587C5.86189 14.5587 5.60902 14.5506 4.7658 14.5121C3.98605 14.4765 3.56259 14.3463 3.28078 14.2367C2.90748 14.0917 2.64106 13.9184 2.36122 13.6385C2.08137 13.3587 1.90805 13.0922 1.76297 12.7189C1.65344 12.4371 1.52316 12.0137 1.48761 11.2339C1.44914 10.3906 1.44097 10.1377 1.44097 8.00226C1.44097 5.86685 1.44913 5.61389 1.48761 4.77057C1.52317 3.99082 1.65345 3.56737 1.76297 3.28556C1.90805 2.91226 2.08134 2.64584 2.36122 2.366C2.64106 2.08612 2.90747 1.91282 3.28078 1.76775C3.56259 1.65821 3.98605 1.52793 4.7658 1.49239C5.60909 1.45392 5.86205 1.44575 7.99748 1.44575ZM8.00002 10.7001C6.50862 10.7001 5.29964 9.49109 5.29964 7.99973C5.29964 6.50834 6.50862 5.29935 8.00002 5.29935C9.49137 5.29935 10.7004 6.50834 10.7004 7.99973C10.7004 9.49109 9.49137 10.7001 8.00002 10.7001ZM8.00002 3.83971C5.70248 3.83971 3.84 5.7022 3.84 7.99973C3.84 10.2972 5.70248 12.1597 8.00002 12.1597C10.2975 12.1597 12.16 10.2972 12.16 7.99973C12.16 5.7022 10.2975 3.83971 8.00002 3.83971ZM13.44 3.51973C13.44 4.04993 13.0102 4.47971 12.48 4.47971C11.9498 4.47971 11.52 4.04993 11.52 3.51973C11.52 2.98953 11.9498 2.55971 12.48 2.55971C13.0102 2.55971 13.44 2.98953 13.44 3.51973Z" fill="black" fill-opacity="0.8"/>
</svg>
