<svg width="14" height="16" viewBox="0 0 14 16" fill="none" xmlns="http://www.w3.org/2000/svg">
<path d="M3.44479 16.0005C2.96065 12.6438 4.12258 10.1586 4.67129 7.512C3.76758 5.96276 4.8004 2.86431 6.70468 3.6389C9.0608 4.5749 4.67129 9.3517 7.64068 9.96495C10.7392 10.6104 12.0302 4.5749 10.0613 2.60611C7.28565 -0.201879 1.99244 2.54157 2.60568 6.60829C2.76707 7.60882 3.79988 7.89932 3.02524 9.25489C1.21779 8.83532 0.733676 7.41518 0.798208 5.57543C0.895036 2.50925 3.54166 0.379028 6.18825 0.0562776C9.54491 -0.331051 12.7079 1.31501 13.1275 4.47804C13.644 8.02837 11.6106 11.9014 8.06024 11.611C7.05971 11.5464 6.64011 11.0623 5.93004 10.5781C5.4459 12.7729 4.9295 14.8708 3.4448 16.0005L3.44479 16.0005Z" fill="black" fill-opacity="0.8"/>
</svg>
