<svg width="20" height="16" viewBox="0 0 20 16" fill="none" xmlns="http://www.w3.org/2000/svg">
<path d="M17.6242 4.01415V4.52217C17.6242 9.87587 13.5601 15.972 6.17433 15.972C3.86872 15.972 1.79758 15.3468 0 14.1744C0.312625 14.2135 0.62525 14.2135 0.976953 14.2135C2.8527 14.2135 4.61122 13.5883 5.97894 12.4941C4.22042 12.455 2.73545 11.2827 2.22744 9.68046C2.42283 9.75862 2.69637 9.75862 2.96992 9.75862C3.3607 9.75862 3.71241 9.71954 4.02503 9.64139C2.18836 9.2506 0.820625 7.64842 0.820625 5.65542V5.61634C1.32864 5.92896 1.99297 6.08528 2.61822 6.12435C1.56311 5.38187 0.820625 4.17045 0.820625 2.76365C0.820625 2.02117 1.01602 1.35684 1.36772 0.770683C3.36069 3.19353 6.33063 4.83481 9.69136 4.95204C9.6132 4.6785 9.57413 4.36587 9.57413 4.05325C9.57413 1.82579 11.3717 0.0281982 13.6383 0.0281982C14.8106 0.0281982 15.8266 0.497136 16.53 1.2787C17.4679 1.08331 18.3276 0.770683 19.1092 0.340823C18.7966 1.2787 18.1713 2.06026 17.3507 2.56828C18.1713 2.45104 18.9138 2.21657 19.6563 1.94303C19.1092 2.72459 18.4058 3.38892 17.6242 4.01415H17.6242Z" fill="black" fill-opacity="0.8"/>
</svg>
