<svg width="32" height="32" viewBox="0 0 32 32" fill="none" xmlns="http://www.w3.org/2000/svg">
<path d="M31.9999 15.9914V15.7902C31.9968 15.7515 31.9788 15.7155 31.9498 15.6897L31.9496 15.6896C31.9496 15.6392 31.8993 15.6392 31.8993 15.5889C31.8993 15.5386 31.849 15.5386 31.849 15.4883C31.8212 15.4883 31.7987 15.4658 31.7987 15.438L20.3773 3.61409C20.188 3.43318 19.9309 3.32178 19.6478 3.32178C19.3646 3.32178 19.1075 3.43315 18.9178 3.61446L18.9182 3.61406C18.7276 3.78937 18.6086 4.04003 18.6086 4.31846C18.6086 4.5969 18.7276 4.84756 18.9176 5.02221L18.9182 5.02284L28.5283 14.9851H1.00628C0.4505 14.9851 0 15.4357 0 15.9914C0 16.5472 0.450531 16.9977 1.00628 16.9977H28.7296L18.9182 26.96C18.7484 27.1452 18.6544 27.3874 18.6548 27.6387C18.6548 27.9259 18.7752 28.185 18.9681 28.3683L18.9686 28.3687C19.1439 28.5594 19.3945 28.6784 19.673 28.6784C19.9514 28.6784 20.2021 28.5593 20.3767 28.3694L20.3773 28.3687L31.7484 16.7963C31.7484 16.746 31.7484 16.746 31.7987 16.6957C31.8265 16.6957 31.849 16.6732 31.849 16.6454C31.849 16.5951 31.8993 16.5951 31.8993 16.5448H31.9497V16.4442C31.9787 16.4185 31.9967 16.3827 31.9999 16.3441L32 16.3435V15.9913L31.9999 15.9914Z" fill="white"/>
</svg>
