<svg width="32" height="32" viewBox="0 0 32 32" fill="none" xmlns="http://www.w3.org/2000/svg">
<path d="M6.29425e-05 15.9914V15.7902C0.00320053 15.7515 0.0211697 15.7155 0.0502186 15.6897L0.050375 15.6896C0.050375 15.6392 0.100687 15.6392 0.100687 15.5889C0.100687 15.5386 0.150999 15.5386 0.150999 15.4883C0.178812 15.4883 0.201313 15.4658 0.201313 15.438L11.6227 3.61409C11.812 3.43318 12.0691 3.32178 12.3522 3.32178C12.6354 3.32178 12.8925 3.43315 13.0822 3.61446L13.0818 3.61406C13.2724 3.78937 13.3914 4.04003 13.3914 4.31846C13.3914 4.5969 13.2724 4.84756 13.0824 5.02221L13.0818 5.02284L3.47169 14.9851H30.9937C31.5495 14.9851 32 15.4357 32 15.9914C32 16.5472 31.5495 16.9977 30.9937 16.9977H3.27044L13.0818 26.96C13.2516 27.1452 13.3456 27.3874 13.3452 27.6387C13.3452 27.9259 13.2248 28.185 13.0319 28.3683L13.0314 28.3687C12.8561 28.5594 12.6055 28.6784 12.327 28.6784C12.0486 28.6784 11.7979 28.5593 11.6233 28.3694L11.6227 28.3687L0.251595 16.7963C0.251595 16.746 0.251593 16.746 0.201281 16.6957C0.173468 16.6957 0.150969 16.6732 0.150969 16.6454C0.150969 16.5951 0.100657 16.5951 0.100657 16.5448H0.0503445V16.4442C0.0213261 16.4185 0.00332451 16.3827 9.34601e-05 16.3441L3.05176e-05 16.3435V15.9913L6.29425e-05 15.9914Z" fill="white"/>
</svg>
