<svg width="50" height="14" viewBox="0 0 50 14" fill="none" xmlns="http://www.w3.org/2000/svg">
<path d="M49.8079 7.65319L44.4231 13.2533C44.0641 13.6266 43.5257 13.6266 43.1667 13.2533C42.8077 12.88 42.8077 12.32 43.1667 11.9466L46.936 7.93317L0.897412 7.93317C0.358887 7.93317 0 7.55988 0 6.99992C0 6.43996 0.359033 6.06666 0.897412 6.06666L46.936 6.06666L43.077 2.05328C42.7179 1.67998 42.7179 1.12002 43.077 0.746534C43.2564 0.559864 43.5257 0.466553 43.7053 0.466553C43.8848 0.466553 44.1541 0.559864 44.3336 0.746534L49.7183 6.34664C50.0773 6.71994 50.0773 7.2799 49.8081 7.65339L49.8079 7.65319Z" fill="black"/>
</svg>
