<svg width="34" height="24" viewBox="0 0 34 24" fill="none" xmlns="http://www.w3.org/2000/svg">
<path d="M13.2668 18.1112C11.8224 18.1112 10.6407 19.2112 10.6407 20.5557C10.6407 21.9001 11.8224 23.0001 13.2668 23.0001C14.7111 23.0001 15.8929 21.9001 15.8929 20.5557C15.8929 19.2112 14.7111 18.1112 13.2668 18.1112ZM13.2668 22.1853C12.3039 22.1853 11.516 21.452 11.516 20.5557C11.516 19.6594 12.3039 18.926 13.2668 18.926C14.2297 18.926 15.0175 19.6594 15.0175 20.5557C15.0175 21.452 14.2297 22.1853 13.2668 22.1853ZM22.0205 18.1112C20.5761 18.1112 19.3944 19.2112 19.3944 20.5557C19.3944 21.9001 20.5761 23.0001 22.0205 23.0001C23.4649 23.0001 24.6466 21.9001 24.6466 20.5557C24.6466 19.2112 23.4649 18.1112 22.0205 18.1112ZM22.0205 22.1853C21.0576 22.1853 20.2698 21.452 20.2698 20.5557C20.2698 19.6594 21.0576 18.926 22.0205 18.926C22.9834 18.926 23.7713 19.6594 23.7713 20.5557C23.7713 21.452 22.9834 22.1853 22.0205 22.1853ZM28.1044 5.88901C27.8855 5.80752 27.6229 5.92975 27.5792 6.1742L24.384 16.0742H11.2534L6.74522 2.10013C6.70146 1.93717 6.52638 1.81494 6.30753 1.81494H1.7118C1.44919 1.81494 1.27411 1.9779 1.27411 2.22236C1.27411 2.46681 1.44919 2.62977 1.7118 2.62977H6.00113L10.4655 16.6038C10.5093 16.7668 10.6844 16.889 10.9032 16.889H24.6904C24.8655 16.889 25.0405 16.7668 25.1281 16.6038L28.4107 6.41865C28.4545 6.21496 28.3232 5.9705 28.1044 5.88901Z" fill="#313131" stroke="#313131" stroke-width="0.5"/>
</svg>
